<?xml version="1.0" encoding="UTF-8"?>
<svg xmlns="http://www.w3.org/2000/svg" version="1.1" viewBox="0 0 283.46 283.46">
  <!-- Generator: Adobe Illustrator 28.7.4, SVG Export Plug-In . SVG Version: 1.2.0 Build 166)  -->
  <g>
    <g id="Camada_1">
      <g>
        <path d="M142.53,184.8c-13.08-3.01-26.17-6-39.26-8.98-3.02-.69-4.33.73-3.42,3.72.83,2.72,1.69,5.43,2.62,8.42-13.77,1.96-27.19,3.22-40.72,2-5.97-.54-11.91-1.41-17.43-3.92-2.27-1.03-4.56-2.3-6.39-3.96-4.85-4.38-5.43-9.98-2.09-16.32,2.58-4.91,6.32-8.85,10.32-12.58.99-.92,1.52-1.96.6-3.13-.9-1.14-2-.74-3.01-.04-1.42.98-2.86,1.95-4.26,2.96-9.08,6.58-17.72,13.62-24.12,23.01-2.42,3.54-4.34,7.35-4.96,11.64-1.22,8.36,2.79,14.04,9.66,18.07,7.5,4.39,15.84,6.08,24.33,7.04,17.71,2,35.32.7,52.88-1.8,3.87-.55,7.72-1.2,11.7-1.83.97,3.09,1.89,6.06,2.83,9.02.91,2.86,2.76,3.31,4.8,1.11,9.15-9.83,18.28-19.68,27.39-29.55,2.24-2.43,1.72-4.16-1.48-4.9Z"/>
        <path d="M265.52,105.12c-2.36-1.67-5-3.07-7.7-4.12-12.32-4.78-25.26-5.39-38.26-5.3-.7,0-1.86,1.02-1.94,1.66-.07.61.9,1.5,1.6,2.01.48.35,1.28.25,1.93.36,5,.84,9.88,2.06,14.39,4.48,7.53,4.05,9.75,10.84,5.93,18.49-.91,1.83-2.02,3.6-3.26,5.23-5.75,7.58-13.22,13.23-21.06,18.42-15.95,10.54-33.24,18.34-51.11,24.96-4.22,1.56-8.48,3-12.8,4.53,2.12,6.85,4.2,13.55,6.3,20.35.67-.18,1.18-.29,1.67-.45,17.96-5.85,35.49-12.79,52.34-21.36,16.4-8.34,32.15-17.7,45.53-30.54,5.26-5.05,9.9-10.6,12.64-17.48,3.36-8.46,1.22-16.01-6.21-21.25Z"/>
        <path d="M156.84,166.11c.17-4.18.64-8.36.55-12.54-.16-7.16-.3-14.35-1.11-21.45-.66-5.82-6.01-10.74-11.86-11.74-5.56-.94-11.16.01-14.36,5.97-.02.05-.21,0-.44,0,0-2.33,0-4.65,0-6.97.02-4.39-.03-8.78.11-13.16.1-3.2,2.29-4.9,4.94-4.08,1.84.57,2.64,2,2.71,3.78.1,2.64.03,5.28.03,8.04h20.12c-.25-2.81-.34-5.52-.76-8.18-.92-5.84-3.17-10.98-8.36-14.35-5.09-3.3-10.78-3.92-16.66-3.63-12.96.65-21.31,8.79-21.59,21.69-.34,16.02-.3,32.04-.27,48.06,0,4.57.22,9.18,2.18,13.48.52,1.14,1.18,1.74,2.43,2,3.9.8,7.78,1.73,11.66,2.63,6.22,1.42,12.45,2.79,18.64,4.31,3.8.93,4.13.72,3.33-2.98-.48-2.18.35-4.45,2.21-5.56,1.01-.6,2.17-1.11,3.32-1.3,2.39-.39,3.09-1.87,3.17-4.02ZM137.34,164.34c-.01.85-.19,1.75-.52,2.52-.67,1.57-1.83,2.66-3.67,2.55-1.81-.11-2.73-1.37-3-2.99-.31-1.89-.46-3.83-.52-5.75-.08-2.92-.02-5.85-.02-8.78h0c0-3.39-.07-6.79.03-10.18.05-1.65.26-3.32.64-4.92.38-1.58,1.57-2.43,3.23-2.47,1.67-.04,2.83.82,3.31,2.36.39,1.26.68,2.6.68,3.91,0,7.91-.07,15.82-.17,23.74Z"/>
        <path d="M55.32,145.33c.44,7.44.77,14.79,1.33,22.13.3,3.89,2.06,7.16,4.74,10.08,7.38,8.03,24.7,7.45,31.75,2.86.57-.37,1.01-1.34,1.04-2.05.12-3.46,1.5-6.16,4.78-7.35,1.63-.59,2.1-1.52,2.38-2.96,1.71-8.98,1.41-17.99.54-27.02-.5-5.2-2.92-9.01-7.66-11.29-.07-.03-.07-.21-.13-.42,3.32-2.29,6.23-4.96,6.99-9.23,1.2-6.71,1.09-13.37-1.06-19.9-1.96-5.95-5.89-9.82-12.07-11.29-6.45-1.53-12.92-1.64-19.38-.23-5.06,1.1-9.15,3.63-11,8.8-2.39,6.67-1.84,13.6-1.87,20.48h19.78c0-1.75-.03-3.35,0-4.94.06-2.19.16-4.39.27-6.58.03-.59.17-1.18.27-1.77.28-1.81,1.46-2.69,3.17-2.69,1.68,0,2.97,1.04,3,2.64.1,5.55.1,11.12-.18,16.66-.1,1.98-1.7,3.26-3.84,3.42-2.37.18-4.75.33-7.14.49v13.1c2.15.22,4.13.37,6.09.65,2.3.33,3.99,1.62,4.61,3.87.49,1.77.85,3.64.9,5.47.13,4.25.09,8.51.03,12.77-.03,1.85-.18,3.73-.49,5.55-.38,2.26-2.13,3.31-4.25,2.73-1.9-.51-2.07-2.13-2.12-3.65-.16-6.05-.23-12.1-.33-18.15-.01-.7,0-1.4,0-2.18h-20.15Z"/>
        <path d="M165.09,166.24c6.01-2.47,11.52-4.77,17.07-6.99,1.48-.59,2.03-1.41,2.03-3.09-.07-15.1-.06-30.2,0-45.29,0-2.24.28-4.51.67-6.72.28-1.58,1.6-2.27,3.14-2.21,1.58.06,2.64.94,2.85,2.54.21,1.58.38,3.18.38,4.76.06,14.43.07,28.86.1,43.3,0,.7,0,1.39,0,2.74,6.68-3.79,12.86-7.26,18.99-10.81.44-.25.79-1.06.79-1.61-.1-11.3-.01-22.61-.47-33.9-.39-9.49-4.99-16.42-14.21-19.68-6.23-2.2-12.56-2.16-18.75.23-6.26,2.42-10.33,6.95-11.82,13.52-.69,3.03-1.24,6.17-1.27,9.26-.14,15.82-.12,31.64-.09,47.47,0,2.03.36,4.07.58,6.46Z"/>
        <path d="M211.7,90.99c7.78-.04,14.02-6.3,14.08-14.11.06-7.67-6.35-14.05-14.12-14.04-7.8,0-14.08,6.3-14.04,14.08.03,7.82,6.34,14.11,14.08,14.07ZM211.67,70.23c3.58,0,6.64,2.98,6.7,6.54.06,3.65-3,6.75-6.67,6.76-3.63.01-6.61-2.92-6.66-6.54-.05-3.73,2.92-6.76,6.63-6.76Z"/>
      </g>
    </g>
  </g>
</svg>